<svg id="visual" viewBox="0 0 900 600" width="900" height="600" xmlns="http://www.w3.org/2000/svg" xmlns:xlink="http://www.w3.org/1999/xlink" version="1.1"><path d="M0 480L21.5 475.3C43 470.7 86 461.3 128.8 456.8C171.7 452.3 214.3 452.7 257.2 454.5C300 456.3 343 459.7 385.8 463.7C428.7 467.7 471.3 472.3 514.2 477.2C557 482 600 487 642.8 482.5C685.7 478 728.3 464 771.2 460.7C814 457.3 857 464.7 878.5 468.3L900 472L900 601L878.5 601C857 601 814 601 771.2 601C728.3 601 685.7 601 642.8 601C600 601 557 601 514.2 601C471.3 601 428.7 601 385.8 601C343 601 300 601 257.2 601C214.3 601 171.7 601 128.8 601C86 601 43 601 21.5 601L0 601Z" fill="#b48ead"></path><path d="M0 496L21.5 493.7C43 491.3 86 486.7 128.8 485.3C171.7 484 214.3 486 257.2 492.2C300 498.3 343 508.7 385.8 507.8C428.7 507 471.3 495 514.2 491.2C557 487.3 600 491.7 642.8 491.2C685.7 490.7 728.3 485.3 771.2 483.3C814 481.3 857 482.7 878.5 483.3L900 484L900 601L878.5 601C857 601 814 601 771.2 601C728.3 601 685.7 601 642.8 601C600 601 557 601 514.2 601C471.3 601 428.7 601 385.8 601C343 601 300 601 257.2 601C214.3 601 171.7 601 128.8 601C86 601 43 601 21.5 601L0 601Z" fill="#a78aaf"></path><path d="M0 512L21.5 512.2C43 512.3 86 512.7 128.8 511.7C171.7 510.7 214.3 508.3 257.2 512.2C300 516 343 526 385.8 528.7C428.7 531.3 471.3 526.7 514.2 523.8C557 521 600 520 642.8 520.2C685.7 520.3 728.3 521.7 771.2 523.3C814 525 857 527 878.5 528L900 529L900 601L878.5 601C857 601 814 601 771.2 601C728.3 601 685.7 601 642.8 601C600 601 557 601 514.2 601C471.3 601 428.7 601 385.8 601C343 601 300 601 257.2 601C214.3 601 171.7 601 128.8 601C86 601 43 601 21.5 601L0 601Z" fill="#9787b1"></path><path d="M0 528L21.5 528C43 528 86 528 128.8 530.7C171.7 533.3 214.3 538.7 257.2 542.5C300 546.3 343 548.7 385.8 548C428.7 547.3 471.3 543.7 514.2 541.2C557 538.7 600 537.3 642.8 537.2C685.7 537 728.3 538 771.2 537.7C814 537.3 857 535.7 878.5 534.8L900 534L900 601L878.5 601C857 601 814 601 771.2 601C728.3 601 685.7 601 642.8 601C600 601 557 601 514.2 601C471.3 601 428.7 601 385.8 601C343 601 300 601 257.2 601C214.3 601 171.7 601 128.8 601C86 601 43 601 21.5 601L0 601Z" fill="#8685b1"></path><path d="M0 559L21.5 558.7C43 558.3 86 557.7 128.8 558.2C171.7 558.7 214.3 560.3 257.2 558.7C300 557 343 552 385.8 549.8C428.7 547.7 471.3 548.3 514.2 551C557 553.7 600 558.3 642.8 561C685.7 563.7 728.3 564.3 771.2 565C814 565.7 857 566.3 878.5 566.7L900 567L900 601L878.5 601C857 601 814 601 771.2 601C728.3 601 685.7 601 642.8 601C600 601 557 601 514.2 601C471.3 601 428.7 601 385.8 601C343 601 300 601 257.2 601C214.3 601 171.7 601 128.8 601C86 601 43 601 21.5 601L0 601Z" fill="#7383af"></path><path d="M0 578L21.5 577.7C43 577.3 86 576.7 128.8 574C171.7 571.3 214.3 566.7 257.2 567.2C300 567.7 343 573.3 385.8 576.2C428.7 579 471.3 579 514.2 578.7C557 578.3 600 577.7 642.8 578.5C685.7 579.3 728.3 581.7 771.2 582.3C814 583 857 582 878.5 581.5L900 581L900 601L878.5 601C857 601 814 601 771.2 601C728.3 601 685.7 601 642.8 601C600 601 557 601 514.2 601C471.3 601 428.7 601 385.8 601C343 601 300 601 257.2 601C214.3 601 171.7 601 128.8 601C86 601 43 601 21.5 601L0 601Z" fill="#5e81ac"></path></svg>